# xmcd
#
# Track frame offsets: 
#        150
#        20894
#        38433
#        49978
#        61552
#        78735
#        87695
#        99640
#        112118
#        122212
#        137007
#        155971
#        181502
#
# Disc length: 2584 seconds
#
# Revision: 0
# Processed by: cddbd v1.5.2PL0 Copyright (c) Steve Scherf et al.
# Submitted via: ExactAudioCopy v0.95b3
#
DISCID=b30a160d
DTITLE=The Who  - The Story Of The Who 1976 - Disc 1
DYEAR=1900
DGENRE=
TTITLE0=Magic Bus (Long Version)
TTITLE1=Substitute
TTITLE2=Boris The Spider
TTITLE3=Run, Run, Run
TTITLE4=I'm A Boy (MBBAB Version)
TTITLE5=Heat Wave
TTITLE6=My Generation (LAL Edit)
TTITLE7=Pictures Of Lily
TTITLE8=Happy Jack
TTITLE9=The Seeker
TTITLE10=Can See For Miles
TTITLE11=Bargain
TTITLE12=Squeeze Box
EXTD=
EXTT0=
EXTT1=
EXTT2=
EXTT3=
EXTT4=
EXTT5=
EXTT6=
EXTT7=
EXTT8=
EXTT9=
EXTT10=
EXTT11=
EXTT12=
PLAYORDER=
